<svg width="40" height="40" viewBox="0 0 40 40" fill="none" xmlns="http://www.w3.org/2000/svg">
<path d="M26.6673 21.5V28.5C26.6673 34.3333 24.334 36.6667 18.5007 36.6667H11.5007C5.66732 36.6667 3.33398 34.3333 3.33398 28.5V21.5C3.33398 15.6666 5.66732 13.3333 11.5007 13.3333H18.5007C24.334 13.3333 26.6673 15.6666 26.6673 21.5Z" stroke="#2FBA56" stroke-width="2" stroke-linecap="round" stroke-linejoin="round"/>
<path d="M36.6673 11.5V18.5C36.6673 24.3333 34.334 26.6666 28.5007 26.6666H26.6673V21.5C26.6673 15.6666 24.334 13.3333 18.5007 13.3333H13.334V11.5C13.334 5.66665 15.6673 3.33331 21.5007 3.33331H28.5007C34.334 3.33331 36.6673 5.66665 36.6673 11.5Z" stroke="#2FBA56" stroke-width="2" stroke-linecap="round" stroke-linejoin="round"/>
</svg>
