<svg width="24" height="24" viewBox="0 0 24 24" fill="none" xmlns="http://www.w3.org/2000/svg">
<circle cx="12" cy="12" r="11.5" stroke="#0F0F11"/>
<path d="M9.09375 17.2383V10.2305H6.91406V17.2383H9.09375ZM7.99219 9.29297C8.69531 9.29297 9.25781 8.70703 9.25781 8.00391C9.25781 7.32422 8.69531 6.76172 7.99219 6.76172C7.3125 6.76172 6.75 7.32422 6.75 8.00391C6.75 8.70703 7.3125 9.29297 7.99219 9.29297ZM17.25 17.2383V13.3945C17.25 11.5195 16.8281 10.0664 14.625 10.0664C13.5703 10.0664 12.8672 10.6523 12.5625 11.1914H12.5391V10.2305H10.4531V17.2383H12.6328V13.7695C12.6328 12.8555 12.7969 11.9883 13.9219 11.9883C15.0469 11.9883 15.0703 13.0195 15.0703 13.8398V17.2383H17.25Z" fill="#0F0F11"/>
</svg>
