<svg width="64" height="64" viewBox="0 0 64 64" fill="none" xmlns="http://www.w3.org/2000/svg">
<rect width="64" height="64" rx="16" fill="#23BCC6"/>
<path d="M32 36C34.2091 36 36 34.2091 36 32C36 29.7909 34.2091 28 32 28C29.7909 28 28 29.7909 28 32C28 34.2091 29.7909 36 32 36Z" stroke="white" stroke-width="2" stroke-miterlimit="10" stroke-linecap="round" stroke-linejoin="round"/>
<path d="M18.666 33.1726V30.8259C18.666 29.4393 19.7993 28.2926 21.1993 28.2926C23.6127 28.2926 24.5993 26.5859 23.386 24.4926C22.6927 23.2926 23.106 21.7326 24.3193 21.0393L26.626 19.7193C27.6793 19.0926 29.0393 19.4659 29.666 20.5193L29.8127 20.7726C31.0127 22.8659 32.986 22.8659 34.1993 20.7726L34.346 20.5193C34.9727 19.4659 36.3327 19.0926 37.386 19.7193L39.6927 21.0393C40.906 21.7326 41.3193 23.2926 40.626 24.4926C39.4127 26.5859 40.3994 28.2926 42.8127 28.2926C44.1994 28.2926 45.346 29.4259 45.346 30.8259V33.1726C45.346 34.5593 44.2127 35.7059 42.8127 35.7059C40.3994 35.7059 39.4127 37.4126 40.626 39.5059C41.3193 40.7193 40.906 42.2659 39.6927 42.9593L37.386 44.2793C36.3327 44.9059 34.9727 44.5326 34.346 43.4793L34.1993 43.2259C32.9993 41.1326 31.026 41.1326 29.8127 43.2259L29.666 43.4793C29.0393 44.5326 27.6793 44.9059 26.626 44.2793L24.3193 42.9593C23.106 42.2659 22.6927 40.7059 23.386 39.5059C24.5993 37.4126 23.6127 35.7059 21.1993 35.7059C19.7993 35.7059 18.666 34.5593 18.666 33.1726Z" stroke="white" stroke-width="2" stroke-miterlimit="10" stroke-linecap="round" stroke-linejoin="round"/>
</svg>
