<svg width="32" height="32" viewBox="0 0 32 32" fill="none" xmlns="http://www.w3.org/2000/svg">
<path d="M9.67704 2.66675H22.3037C23.1704 2.66675 23.9437 2.69345 24.637 2.78678C28.3304 3.20012 29.3304 4.93343 29.3304 9.68009V18.1068C29.3304 22.8534 28.3304 24.5867 24.637 25.0001C23.9437 25.0934 23.1837 25.1201 22.3037 25.1201H9.67704C8.81038 25.1201 8.03704 25.0934 7.34371 25.0001C3.65038 24.5867 2.65039 22.8534 2.65039 18.1068V9.68009C2.65039 4.93343 3.65038 3.20012 7.34371 2.78678C8.03704 2.69345 8.81038 2.66675 9.67704 2.66675Z" stroke="#E8552E" stroke-width="2" stroke-linecap="round" stroke-linejoin="round"/>
<path d="M18.1035 11.0935H23.0102" stroke="#E8552E" stroke-width="2" stroke-linecap="round" stroke-linejoin="round"/>
<path d="M8.98438 18.8132H9.01103H23.0244" stroke="#E8552E" stroke-width="2" stroke-linecap="round" stroke-linejoin="round"/>
<path d="M9.33398 29.3333H22.6673" stroke="#E8552E" stroke-width="2" stroke-linecap="round" stroke-linejoin="round"/>
<path d="M9.59098 11.0668H9.60296" stroke="#0F0F11" stroke-width="2" stroke-linecap="round" stroke-linejoin="round"/>
<path d="M13.9933 11.0666H14.0053" stroke="#0F0F11" stroke-width="2" stroke-linecap="round" stroke-linejoin="round"/>
</svg>
