<svg width="52" height="52" viewBox="0 0 52 52" fill="none" xmlns="http://www.w3.org/2000/svg">
<circle cx="26" cy="26" r="26" fill="#0F0F11"/>
<path d="M26.5 28.75H24C23.59 28.75 23.25 28.41 23.25 28C23.25 27.59 23.59 27.25 24 27.25H26.5C29.12 27.25 31.25 25.12 31.25 22.5C31.25 19.88 29.12 17.75 26.5 17.75H21.5C18.88 17.75 16.75 19.88 16.75 22.5C16.75 23.6 17.14 24.67 17.84 25.52C18.1 25.84 18.06 26.31 17.74 26.58C17.42 26.84 16.95 26.8 16.68 26.48C15.76 25.36 15.25 23.95 15.25 22.5C15.25 19.05 18.05 16.25 21.5 16.25H26.5C29.95 16.25 32.75 19.05 32.75 22.5C32.75 25.95 29.95 28.75 26.5 28.75Z" fill="white"/>
<path d="M30.5 35.75H25.5C22.05 35.75 19.25 32.95 19.25 29.5C19.25 26.05 22.05 23.25 25.5 23.25H28C28.41 23.25 28.75 23.59 28.75 24C28.75 24.41 28.41 24.75 28 24.75H25.5C22.88 24.75 20.75 26.88 20.75 29.5C20.75 32.12 22.88 34.25 25.5 34.25H30.5C33.12 34.25 35.25 32.12 35.25 29.5C35.25 28.4 34.86 27.33 34.16 26.48C33.9 26.16 33.94 25.69 34.26 25.42C34.58 25.15 35.05 25.2 35.32 25.52C36.25 26.64 36.76 28.05 36.76 29.5C36.75 32.95 33.95 35.75 30.5 35.75Z" fill="white"/>
</svg>
