<svg width="112" height="56" viewBox="0 0 112 56" fill="none" xmlns="http://www.w3.org/2000/svg">
<path d="M30.691 18.1151C32.8218 15.5992 36.0179 14 39.59 14H47.5602V19.7566H39.59C37.8039 19.7566 36.2059 20.5548 35.1405 21.8127L20.8692 38.6679C18.7385 41.1837 15.5452 42.7801 11.9703 42.7801H4V37.0263H11.9703C13.7563 37.0263 15.3515 36.2281 16.4197 34.9702L30.691 18.1151Z" fill="#4A4B54"/>
<path d="M59.4679 14H53.3691V42.7829H59.4679V14Z" fill="#4A4B54"/>
<path d="M82.1446 18.1151L87.0555 23.9168L91.9664 18.1151C94.0971 15.5992 97.2932 14 100.865 14H108.833V19.7566H100.865C99.0793 19.7566 97.4812 20.5548 96.4159 21.8127L90.8441 28.3901L96.4159 34.9674C97.4812 36.2253 99.0764 37.0235 100.865 37.0235H108.833V42.7801H100.865C97.2932 42.7801 94.0971 41.1837 91.9664 38.6679L87.0555 32.869L82.1446 38.6679C80.0138 41.1837 76.8178 42.7801 73.2457 42.7801H65.2754V37.0263H73.2457C75.0317 37.0263 76.6269 36.2281 77.6923 34.9702L83.2612 28.3929L77.6923 21.8127C76.6269 20.5548 75.0289 19.7566 73.2457 19.7566H65.2754V14H73.2457C76.8149 14 80.0138 15.5992 82.1446 18.1151Z" fill="#4A4B54"/>
</svg>
