<svg width="182" height="56" viewBox="0 0 182 56" fill="none" xmlns="http://www.w3.org/2000/svg">
<path d="M181.787 35.0052C181.787 26.7373 175.926 19.8824 167.696 19.8824C158.828 19.8824 153.18 27.098 153.18 35.3059C153.18 44.566 159.891 50.6693 168.82 50.6693C173.466 50.6693 178.173 48.7451 181.089 45.3778L176.503 40.8379C175.106 42.3412 172.403 44.2654 168.972 44.2654C164.75 44.2654 161.349 41.4091 160.924 37.2301H181.605C181.727 36.5987 181.787 35.7869 181.787 35.0052ZM173.557 31.4575H161.228C161.592 28.7817 164.295 26.2863 167.635 26.2863C170.915 26.2863 173.314 28.8418 173.557 31.4575ZM149.93 37.2902C150.052 36.5987 150.112 35.8471 150.112 35.0353C150.112 26.7673 144.251 19.9124 136.021 19.9124C127.153 19.9124 121.505 27.1281 121.505 35.3359C121.505 44.5961 128.216 50.6993 137.145 50.6993C141.791 50.6993 146.498 48.7752 149.414 45.4078L144.828 40.868C143.431 42.3712 140.728 44.2954 137.297 44.2954C133.075 44.2954 129.674 41.4392 129.249 37.2601H149.93V37.2902ZM141.882 31.4575H129.553C129.917 28.7817 132.62 26.2863 135.96 26.2863C139.24 26.2863 141.639 28.8418 141.882 31.4575ZM108.385 50.068H116.403V5H108.416L108.385 50.068ZM100.003 50.068V5H92.0163V50.068H100.003ZM77.8946 50.068H85.578V20.4536H77.8946V22.8288C75.5562 20.9046 72.5497 19.8523 69.1483 19.8523C61.0398 19.8523 54.4497 26.5268 54.4497 35.2758C54.4497 39.2745 55.9074 42.9425 58.2762 45.6183C60.9183 48.6549 65.0789 50.6091 69.5431 50.6091C72.5497 50.6091 75.4044 49.6771 77.8946 47.6327V50.068ZM77.6213 39.6654C76.1029 41.8902 73.4607 43.3333 70.3935 43.3333C65.8685 43.3333 62.5279 39.9059 62.5279 35.3059C62.5279 31.0667 65.5344 27.2183 70.2112 27.2183C73.2785 27.2183 75.9814 28.6614 77.6213 30.8863V39.6654ZM47.9507 45.949C49.8336 43.634 50.9572 40.5974 50.9572 36.1778V20.5438H42.9701V36.5386C42.9701 39.2144 42.4539 40.5373 41.5124 41.5895C40.2673 42.9124 38.5666 43.3935 36.9874 43.3935C34.406 43.3935 32.1587 42.0706 30.8225 40.7176C30.3669 39.8457 30.0633 38.7333 30.0025 37.0497C30.0025 36.749 30.0633 36.5386 30.0633 36.2379V20.5438H21.9243V36.1778C21.9243 36.4784 21.9243 36.749 21.9851 36.9895C21.9243 38.6732 21.6206 39.8457 21.1651 40.6575C19.8289 41.9804 17.6423 43.3333 15.0002 43.3333C13.4817 43.3333 11.7203 42.8824 10.4752 41.5294C9.53372 40.4771 9.01745 39.1542 9.01745 36.4784V20.5438H1V36.1778C1 40.5373 2.12366 43.634 4.00654 45.949C6.4057 48.8654 10.3537 50.7294 14.4535 50.7294C18.857 50.7294 22.6228 48.5647 25.022 46.0693L25.9027 45.4379L26.7834 46.0693C29.1826 48.5647 32.9483 50.7294 37.3518 50.7294C41.6035 50.7294 45.5211 48.8654 47.9507 45.949Z" fill="#4A4B54"/>
</svg>
