<svg width="212" height="56" viewBox="0 0 212 56" fill="none" xmlns="http://www.w3.org/2000/svg">
<path d="M13.963 31.2797C15.1749 32.3897 22.5516 39.6313 23.4737 40.4506C23.6054 39.2085 24.8963 18.9373 24.9753 17.4044C25.5286 17.4044 27.4518 17.4044 28.0314 17.4044C27.8733 19.413 26.0028 45.4193 25.8974 46.8729C24.949 45.9743 15.3857 36.8563 14.0157 35.5612C12.5667 36.9356 3.63565 45.4457 2.13397 46.8729C1.92321 44.045 0.131727 18.9902 0 17.4044C0.737669 17.4044 2.45011 17.4044 3.13509 17.4044C3.21413 18.9902 4.45236 38.9177 4.55774 40.4506C5.6379 39.4199 12.9355 32.3105 13.963 31.2797Z" fill="#4A4B54"/>
<path d="M30.7441 17.4044C31.2974 17.4044 33.0625 17.4044 33.8002 17.4044C33.8002 18.8316 33.8002 44.5207 33.8002 46.1065C32.9308 46.1065 31.5608 46.1065 30.7441 46.1065C30.7441 44.3621 30.7441 19.0166 30.7441 17.4044Z" fill="#4A4B54"/>
<path d="M37.0684 17.008C38.3593 18.3823 54.6407 36.8563 56.1424 38.5742C56.1424 36.5127 56.1424 19.3073 56.1424 17.4044C56.6956 17.4044 58.171 17.4044 59.1457 17.4044C59.1457 18.9638 59.1457 43.6486 59.1457 46.6086C57.565 44.7586 41.6788 26.7868 40.0717 24.9632C40.0717 27.5532 40.0717 44.4943 40.0717 46.08C39.3867 46.08 37.727 46.08 37.0684 46.08C37.0684 43.9657 37.0684 19.0695 37.0684 17.008Z" fill="#4A4B54"/>
<path d="M60.0938 46.08C60.568 45.1286 74.1095 17.4309 74.3202 17.008C74.3993 17.008 74.3993 17.008 74.4783 17.008C74.6627 17.4044 87.809 44.6264 88.494 46.08C87.8617 46.08 85.5433 46.08 85.0164 46.08C84.6739 45.3929 82.0657 39.8428 81.5388 38.7592C80.6694 38.7592 68.2344 38.7592 66.9962 38.7592C66.6537 39.3935 63.8611 45.155 63.4923 46.08C62.9654 46.1329 60.726 46.08 60.0938 46.08ZM74.3202 23.5096C73.5562 25.1482 68.9458 34.6627 68.4452 35.8255C69.6044 35.8255 78.878 35.8255 80.1162 35.8255C79.7737 34.9798 75.0052 25.016 74.3202 23.5096Z" fill="#4A4B54"/>
<path d="M104.379 17.4044C109.648 17.4044 112.968 21.7124 112.968 26.0996C112.968 30.6454 109.543 33.8433 106.092 34.4512C106.619 35.1384 112.862 45.1286 113.547 46.1065C112.783 46.1065 110.465 46.1065 109.78 46.1065C109.227 45.155 103.273 35.7462 102.614 34.7155C101.639 34.7155 93.4722 34.7155 92.4448 34.7155C92.4448 36.037 92.4448 45.1286 92.4448 46.1065C91.8388 46.1065 90.0737 46.1065 89.4414 46.1065C89.4414 44.8643 89.4414 18.303 89.4414 17.4044C90.6533 17.4044 99.1365 17.4044 104.379 17.4044ZM104.089 31.729C107.567 31.729 109.569 29.1125 109.569 26.0996C109.569 23.2717 107.462 20.3645 103.984 20.3645C100.085 20.3645 93.604 20.3645 92.4448 20.3645C92.4448 21.5274 92.4448 30.3811 92.4448 31.729C93.8411 31.729 99.8742 31.729 104.089 31.729Z" fill="#4A4B54"/>
<path d="M128.566 46.7672C120.293 46.7672 113.549 40.0542 113.549 31.7555C113.549 23.4567 120.293 16.6909 128.566 16.6909C132.755 16.6909 136.68 18.2766 139.367 21.2895C138.893 21.7652 137.602 23.1396 137.049 23.6153C134.994 21.2631 131.991 19.7831 128.592 19.7831C122.216 19.7831 116.974 25.1218 116.974 31.729C116.974 38.3627 122.216 43.6486 128.592 43.6486C131.885 43.6486 134.862 42.2214 136.996 39.8956C137.497 40.3978 138.84 41.6928 139.262 42.1685C136.627 45.0493 132.807 46.7672 128.566 46.7672Z" fill="#4A4B54"/>
<path d="M167.977 31.7555C167.977 40.0542 161.233 46.7672 152.96 46.7672C144.688 46.7672 137.943 40.0542 137.943 31.7555C137.943 23.4567 144.688 16.6909 152.96 16.6909C161.259 16.6909 167.977 23.4567 167.977 31.7555ZM141.342 31.7555C141.342 38.4685 146.532 43.8071 152.96 43.8071C159.388 43.8071 164.578 38.4685 164.578 31.7555C164.578 25.0425 159.388 19.6773 152.96 19.6773C146.532 19.6773 141.342 25.0425 141.342 31.7555Z" fill="#4A4B54"/>
<path d="M208.918 9H175.539C174.143 9 173.01 10.1365 173.01 11.5372V45.3665C173.01 46.7672 174.143 47.9037 175.539 47.9037H208.918C210.315 47.9037 211.448 46.7672 211.448 45.3665V11.5372C211.421 10.1365 210.315 9 208.918 9ZM174.828 17.2459L202.358 12.5151L203.834 17.9066L174.828 22.2674V17.2459ZM206.284 46.0801H187.447L186.894 37.2792C185.919 37.4113 181.546 37.5435 181.045 43.2522C181.045 43.2522 181.071 46.0801 181.045 46.0801H179.438V42.6971C179.912 36.9092 184.733 35.8784 186.604 35.6934C186.525 35.4556 185.076 31.0683 179.649 31.4648C177.357 31.8083 175.829 32.7862 174.801 33.9755V24.276L203.781 20.1002L206.705 28.214L205.362 28.8747L206.284 46.0801Z" fill="#4A4B54"/>
</svg>
