<svg width="64" height="64" viewBox="0 0 64 64" fill="none" xmlns="http://www.w3.org/2000/svg">
<rect width="64" height="64" rx="16" fill="#2FBA56"/>
<path d="M44.8796 27.9201L43.5729 33.4934C42.4529 38.3067 40.2396 40.2534 36.0796 39.8534C35.4129 39.8 34.6929 39.6801 33.9196 39.4934L31.6796 38.96C26.1196 37.64 24.3996 34.8934 25.7063 29.3201L27.0129 23.7334C27.2796 22.6001 27.5996 21.6134 27.9996 20.8001C29.5596 17.5734 32.2129 16.7067 36.6663 17.7601L38.8929 18.2801C44.4796 19.5867 46.1863 22.3467 44.8796 27.9201Z" stroke="white" stroke-width="1.5" stroke-linecap="round" stroke-linejoin="round"/>
<path d="M36.0785 39.8535C35.2518 40.4135 34.2118 40.8802 32.9452 41.2935L30.8385 41.9868C25.5452 43.6935 22.7585 42.2668 21.0385 36.9735L19.3318 31.7068C17.6252 26.4135 19.0385 23.6135 24.3318 21.9068L26.4385 21.2135C26.9852 21.0402 27.5052 20.8935 27.9985 20.8002C27.5985 21.6135 27.2785 22.6002 27.0118 23.7335L25.7052 29.3202C24.3985 34.8935 26.1185 37.6402 31.6785 38.9602L33.9185 39.4935C34.6918 39.6802 35.4118 39.8002 36.0785 39.8535Z" stroke="white" stroke-width="1.5" stroke-linecap="round" stroke-linejoin="round"/>
<path d="M32.8535 25.3734L39.3202 27.0134" stroke="white" stroke-width="1.5" stroke-linecap="round" stroke-linejoin="round"/>
<path d="M31.5469 30.5332L35.4135 31.5199" stroke="white" stroke-width="1.5" stroke-linecap="round" stroke-linejoin="round"/>
</svg>
