<svg width="36" height="36" viewBox="0 0 36 36" fill="none" xmlns="http://www.w3.org/2000/svg">
<path d="M18.0001 11.835L16.3951 14.625C16.0351 15.24 16.3351 15.75 17.0401 15.75H18.9451C19.6651 15.75 19.9501 16.26 19.5901 16.875L18.0001 19.665" stroke="#5A0DE4" stroke-width="2" stroke-linecap="round" stroke-linejoin="round"/>
<path d="M12.4491 27.0598V25.3198C8.99906 23.2348 6.16406 19.1698 6.16406 14.8498C6.16406 7.42477 12.9891 1.60477 20.6991 3.28477C24.0891 4.03477 27.0591 6.28478 28.6041 9.38978C31.7391 15.6898 28.4391 22.3798 23.5941 25.3048V27.0448C23.5941 27.4798 23.7591 28.4848 22.1541 28.4848H13.8891C12.2391 28.4998 12.4491 27.8548 12.4491 27.0598Z" stroke="#5A0DE4" stroke-width="2" stroke-linecap="round" stroke-linejoin="round"/>
<path d="M12.75 32.9998C16.185 32.0248 19.815 32.0248 23.25 32.9998" stroke="#5A0DE4" stroke-width="2" stroke-linecap="round" stroke-linejoin="round"/>
</svg>
