<svg width="32" height="32" viewBox="0 0 32 32" fill="none" xmlns="http://www.w3.org/2000/svg">
<path d="M12.3333 3H20.3333C27 3 29.6667 5.66667 29.6667 12.3333V20.3333C29.6667 27 27 29.6667 20.3333 29.6667H12.3333C5.66667 29.6667 3 27 3 20.3333V12.3333C3 5.66667 5.66667 3 12.3333 3Z" stroke="#2FBA56" stroke-width="1.5" stroke-linecap="round" stroke-linejoin="round"/>
<path d="M11.4258 20.3601L20.1458 11.6401" stroke="#2FBA56" stroke-width="1.5" stroke-linecap="round" stroke-linejoin="round"/>
<path d="M11.974 13.8269C12.8797 13.8269 13.614 13.0926 13.614 12.1869C13.614 11.2811 12.8797 10.5469 11.974 10.5469C11.0683 10.5469 10.334 11.2811 10.334 12.1869C10.334 13.0926 11.0683 13.8269 11.974 13.8269Z" stroke="#2FBA56" stroke-width="1.5" stroke-linecap="round" stroke-linejoin="round"/>
<path d="M20.6927 21.4533C21.5985 21.4533 22.3327 20.7191 22.3327 19.8133C22.3327 18.9076 21.5985 18.1733 20.6927 18.1733C19.787 18.1733 19.0527 18.9076 19.0527 19.8133C19.0527 20.7191 19.787 21.4533 20.6927 21.4533Z" stroke="#2FBA56" stroke-width="1.5" stroke-linecap="round" stroke-linejoin="round"/>
</svg>
