<svg width="28" height="28" viewBox="0 0 28 28" fill="none" xmlns="http://www.w3.org/2000/svg">
<circle cx="14" cy="14" r="13.5" fill="#0F0F11" stroke="black"/>
<path d="M19.6562 11.5628C20.1817 11.1687 20.6547 10.6957 21.0225 10.1439C20.5496 10.3541 19.9978 10.5118 19.4459 10.5643C20.024 10.2227 20.4445 9.69718 20.6547 9.04026C20.1291 9.35558 19.5248 9.59207 18.9204 9.72346C18.3949 9.17165 17.6854 8.85632 16.8971 8.85632C15.373 8.85632 14.138 10.0913 14.138 11.6154C14.138 11.8256 14.1643 12.0358 14.2169 12.246C11.9308 12.1146 9.88118 11.011 8.51478 9.35558C8.27829 9.74973 8.14691 10.2227 8.14691 10.7483C8.14691 11.6942 8.61989 12.5351 9.38192 13.0343C8.93521 13.0081 8.4885 12.903 8.12063 12.6927V12.719C8.12063 14.0591 9.06659 15.1628 10.3279 15.4255C10.1177 15.4781 9.8549 15.5306 9.61841 15.5306C9.43447 15.5306 9.27681 15.5044 9.09287 15.4781C9.43447 16.5817 10.4593 17.37 11.668 17.3963C10.722 18.132 9.53958 18.5787 8.25201 18.5787C8.01552 18.5787 7.80531 18.5525 7.59509 18.5262C8.80383 19.3145 10.2491 19.7612 11.8257 19.7612C16.8971 19.7612 19.6562 15.5832 19.6562 11.9307C19.6562 11.7993 19.6562 11.6942 19.6562 11.5628Z" fill="white"/>
</svg>
