<svg width="40" height="40" viewBox="0 0 40 40" fill="none" xmlns="http://www.w3.org/2000/svg">
<path d="M20.0007 36.6674C29.2054 36.6674 36.6673 29.2055 36.6673 20.0008C36.6673 10.796 29.2054 3.33411 20.0007 3.33411C10.7959 3.33411 3.33398 10.796 3.33398 20.0008C3.33398 29.2055 10.7959 36.6674 20.0007 36.6674Z" stroke="#2FBA56" stroke-width="2" stroke-linecap="round" stroke-linejoin="round"/>
<path d="M13.3353 5H15.002C11.752 14.7333 11.752 25.2667 15.002 35H13.3353" stroke="#2FBA56" stroke-width="2" stroke-linecap="round" stroke-linejoin="round"/>
<path d="M25 5C28.25 14.7333 28.25 25.2667 25 35" stroke="#2FBA56" stroke-width="2" stroke-linecap="round" stroke-linejoin="round"/>
<path d="M5 26.6667V25C14.7333 28.25 25.2667 28.25 35 25V26.6667" stroke="#2FBA56" stroke-width="2" stroke-linecap="round" stroke-linejoin="round"/>
<path d="M5 15C14.7333 11.75 25.2667 11.75 35 15" stroke="#2FBA56" stroke-width="2" stroke-linecap="round" stroke-linejoin="round"/>
</svg>
