<svg width="28" height="28" viewBox="0 0 28 28" fill="none" xmlns="http://www.w3.org/2000/svg">
<circle cx="14" cy="14" r="13.5" stroke="black"/>
<path d="M11.4782 19.1057V11.052H8.97322V19.1057H11.4782ZM10.2123 9.97459C11.0203 9.97459 11.6668 9.3012 11.6668 8.49313C11.6668 7.712 11.0203 7.06555 10.2123 7.06555C9.43112 7.06555 8.78467 7.712 8.78467 8.49313C8.78467 9.3012 9.43112 9.97459 10.2123 9.97459ZM20.8518 19.1057V14.6883C20.8518 12.5335 20.3669 10.8635 17.835 10.8635C16.6229 10.8635 15.8148 11.5368 15.4647 12.1564H15.4377V11.052H13.0405V19.1057H15.5455V15.1193C15.5455 14.0688 15.734 13.0722 17.0269 13.0722C18.3198 13.0722 18.3468 14.2573 18.3468 15.2001V19.1057H20.8518Z" fill="#0F0F11"/>
</svg>
