<svg width="24" height="24" viewBox="0 0 24 24" fill="none" xmlns="http://www.w3.org/2000/svg">
<circle cx="12" cy="12" r="11.5" stroke="#0F0F11"/>
<path d="M12.25 13.375H11C10.795 13.375 10.625 13.205 10.625 13C10.625 12.795 10.795 12.625 11 12.625H12.25C13.56 12.625 14.625 11.56 14.625 10.25C14.625 8.94 13.56 7.875 12.25 7.875H9.75C8.44 7.875 7.375 8.94 7.375 10.25C7.375 10.8 7.57 11.335 7.92 11.76C8.05 11.92 8.03 12.155 7.87 12.29C7.71 12.42 7.475 12.4 7.34 12.24C6.88 11.68 6.625 10.975 6.625 10.25C6.625 8.525 8.025 7.125 9.75 7.125H12.25C13.975 7.125 15.375 8.525 15.375 10.25C15.375 11.975 13.975 13.375 12.25 13.375Z" fill="#0F0F11"/>
<path d="M14.25 16.875H11.75C10.025 16.875 8.625 15.475 8.625 13.75C8.625 12.025 10.025 10.625 11.75 10.625H13C13.205 10.625 13.375 10.795 13.375 11C13.375 11.205 13.205 11.375 13 11.375H11.75C10.44 11.375 9.375 12.44 9.375 13.75C9.375 15.06 10.44 16.125 11.75 16.125H14.25C15.56 16.125 16.625 15.06 16.625 13.75C16.625 13.2 16.43 12.665 16.08 12.24C15.95 12.08 15.97 11.845 16.13 11.71C16.29 11.575 16.525 11.6 16.66 11.76C17.125 12.32 17.38 13.025 17.38 13.75C17.375 15.475 15.975 16.875 14.25 16.875Z" fill="#0F0F11"/>
</svg>
