<svg width="240" height="56" viewBox="0 0 240 56" fill="none" xmlns="http://www.w3.org/2000/svg">
<path d="M80.623 38.0301V29.9021H81.8808L85.4606 36.2061H85.5573V29.9021H86.3635V38.0301H85.6218L81.4293 30.7661V38.0301H80.623Z" fill="#4A4B54"/>
<path d="M111.616 29.9021V30.6381H107.585V33.3581H110.423V34.1261H107.585V37.2301H111.842V38.0301H106.682V29.9021H111.616Z" fill="#4A4B54"/>
<path d="M133.868 30.6381V38.0301H132.965V30.6381H130.514V29.9021H136.351V30.6381H133.868Z" fill="#4A4B54"/>
<path d="M154.799 29.9021H155.67L157.185 36.3981L158.83 29.9021H159.636L161.281 36.3981L162.797 29.9021H163.668L161.668 38.0301H160.926L159.185 31.4381L157.637 38.0301H156.798L154.799 29.9021Z" fill="#4A4B54"/>
<path d="M185.629 37.3901C187.048 37.3901 187.951 36.2701 187.951 33.9981C187.951 31.7261 187.145 30.5741 185.629 30.5741C184.114 30.5741 183.307 31.6941 183.307 33.9981C183.307 36.3021 184.21 37.3901 185.629 37.3901ZM185.629 29.8061C187.629 29.8061 188.854 31.2781 188.854 33.9661C188.854 36.6541 187.661 38.1261 185.629 38.1261C183.598 38.1261 182.404 36.6541 182.404 33.9661C182.404 31.2781 183.598 29.8061 185.629 29.8061Z" fill="#4A4B54"/>
<path d="M209.397 33.5821H211.042C212.3 33.5821 212.912 33.1341 212.912 32.1101C212.912 31.0861 212.171 30.7021 210.977 30.7021H209.3L209.397 33.5821ZM208.43 38.0301V29.9021H211.042C212.816 29.9021 213.815 30.7021 213.815 32.0461C213.815 33.0381 213.138 33.9341 212.171 34.1901L213.88 38.0301H212.912L211.268 34.3181H209.333V38.0301H208.43Z" fill="#4A4B54"/>
<path d="M235.005 38.0301H234.102V29.9021H235.005V34.1261L238.455 29.9021H239.487L236.94 32.9421L239.778 38.0301H238.746L236.359 33.6781L235.005 35.3101V38.0301Z" fill="#4A4B54"/>
<path d="M86.6549 19.7261C88.5254 19.7261 89.3316 19.1181 89.3316 17.8061C89.3316 16.4941 88.5254 15.7901 86.4936 15.7901H84.3974V19.7261H86.6549ZM86.1389 12.6221C87.7836 12.6221 88.4609 12.1741 88.4609 11.0541C88.4609 9.93406 87.8481 9.58206 86.0099 9.58206H84.4296V12.6221H86.1389ZM86.7516 6.31805C90.4281 6.31805 92.2019 7.66206 92.2019 10.3181C92.2019 11.8221 91.2989 13.1981 89.8799 13.8061C92.1374 14.4781 93.3951 16.0461 93.3951 18.1901C93.3951 21.2941 91.2344 23.1501 87.4934 23.1501H80.4629V6.31805H86.7516Z" fill="#4A4B54"/>
<path d="M100.942 19.7261H107.134V23.1501H97.1367V6.31805H100.942V19.7261Z" fill="#4A4B54"/>
<path d="M119.453 13.6461C119.453 13.5821 119.292 13.2621 119.163 12.8461L118.873 11.9501C118.583 11.1501 118.486 10.6061 118.26 9.87005C118.196 10.0621 118.131 10.2541 118.099 10.4781L117.938 11.1501C117.647 12.2701 117.551 12.3341 117.131 13.7421L116.744 14.9261H119.873L119.453 13.6461ZM120.485 6.31805L126.774 23.1501H122.678L120.872 18.0301H115.712L113.906 23.2141H109.811L116.003 6.31805H120.485Z" fill="#4A4B54"/>
<path d="M140.899 10.3181C139.867 9.80611 138.77 9.48611 137.609 9.42211C134.868 9.26211 132.481 11.3421 132.32 14.0621C132.32 14.1261 132.32 14.1901 132.32 14.2221V14.7341C132.32 17.8381 134.481 20.0781 137.48 20.0781C138.673 20.0781 139.867 19.7901 140.931 19.1821V22.8301C139.802 23.2781 138.577 23.5021 137.351 23.5021C132.127 23.5021 128.386 19.7901 128.386 14.6701C128.321 9.9661 132.094 6.06211 136.867 5.99811H136.9H137.19C138.448 6.03011 139.705 6.1901 140.931 6.5101L140.899 10.3181Z" fill="#4A4B54"/>
<path d="M149.704 6.31805V13.2301L155.38 6.31805H159.863L153.445 13.8701L159.927 23.1501H155.38L149.704 14.8301V23.1501H145.834V6.31805H149.704Z" fill="#4A4B54"/>
<path d="M177.793 23.1501H173.891V15.6621H167.474V23.1501H163.604V6.31805H167.474V12.2381H173.891V6.31805H177.793V23.1501Z" fill="#4A4B54"/>
<path d="M190.403 13.6461C190.403 13.5821 190.242 13.2621 190.113 12.8461L189.823 11.8861C189.565 11.2141 189.371 10.5101 189.242 9.80605C189.178 9.99805 189.113 10.1901 189.081 10.4141L188.92 11.0861C188.63 12.2061 188.533 12.2701 188.114 13.6781L187.662 14.8621H190.79L190.403 13.6461ZM191.468 6.31805L197.756 23.1501H193.661L191.855 18.0301H186.695L184.889 23.2141H180.857L187.049 6.38205L191.468 6.31805Z" fill="#4A4B54"/>
<path d="M202.528 6.31807L204.625 13.7421L204.85 14.5421C205.141 15.5981 205.366 16.6861 205.528 17.8061C205.657 16.4621 205.915 15.1181 206.269 13.8061L208.14 6.38207H212.461L214.332 14.0301C214.622 15.1181 214.848 16.2381 215.009 17.3581L215.074 17.8061C215.267 16.5261 215.557 15.2781 215.88 14.0301L218.137 6.38207H222.233L217.138 23.2141H212.881L211.01 15.5661C210.655 14.1901 210.397 12.8141 210.268 11.4061L210.204 12.0141C210.043 13.1981 209.817 14.4141 209.527 15.5661L207.656 23.1181H203.464L198.465 6.28607L202.528 6.31807Z" fill="#4A4B54"/>
<path d="M229.715 6.31805V13.2301L235.391 6.31805H239.874L233.424 13.8701L239.938 23.1501H235.391L229.715 14.8301V23.1501H225.812V6.31805H229.715Z" fill="#4A4B54"/>
<path d="M8.83496 6.15806L8.89945 6.31807C19.8967 2.76606 36.699 2.99006 43.0522 9.19807C39.1822 14.8941 21.1545 26.0301 1.73996 32.6861L1.90121 32.6221C1.32071 32.8461 0.707956 33.0061 0.0952062 33.2301C-0.130544 33.3901 0.0952062 33.5181 0.256456 33.5181C11.0925 31.2781 42.4717 21.8701 53.082 6.31807C45.9547 -0.881937 26.4435 -3.18594 8.83496 6.15806Z" fill="#4A4B54"/>
<path d="M73.5925 20.2701C68.1422 14.7021 53.662 13.3901 40.7942 20.1101L40.7297 20.3341L40.9555 20.3981C49.018 17.8061 61.273 18.0301 65.9815 22.4781C64.7237 24.2701 61.789 26.6381 57.6932 29.2301C49.6952 27.3741 38.7302 28.2701 28.4747 33.6781L28.5392 33.8381C35.2472 31.6301 44.5352 31.0861 51.4045 32.8781C46.309 35.5981 41.02 37.9021 35.5697 39.7581L34.3765 40.1421L34.2152 40.3021V40.3661L34.5055 40.5261C41.407 39.0221 48.115 36.8141 54.5972 33.9981C55.9517 34.5741 57.1772 35.3741 58.2415 36.3661C54.823 41.3261 38.311 49.7741 21.0572 54.5101H21.2185L19.5737 54.9581C19.348 55.0221 19.5737 55.1821 19.735 55.1821C29.3777 53.8381 57.8222 47.4701 67.0135 33.9021C65.4655 32.3981 63.6272 31.2461 61.6277 30.4781C66.562 27.6621 70.8835 24.3341 73.5925 20.3981V20.2701Z" fill="#4A4B54"/>
</svg>
