<svg width="172" height="56" viewBox="0 0 172 56" fill="none" xmlns="http://www.w3.org/2000/svg">
<path d="M27.7269 42.9872V25.4352L20.244 42.9872H16.0898L8.73258 25.4352V42.9872H1V12.5856H11.3504L18.4611 29.752L25.9011 12.5856H35.4594V42.9872H27.7269Z" fill="#4A4B54"/>
<path d="M41.4062 42.9872V12.5856H48.016C48.5981 12.5856 49.1738 13.1712 49.1738 13.8016V42.9872H41.4062Z" fill="#4A4B54"/>
<path d="M70.626 25.4832H80.4468C81.2229 25.4832 81.6651 26.12 81.6651 26.8672V42.5744C78.8994 43.1936 74.583 43.5744 71.3704 43.5744C60.1023 43.5744 54.1621 38.1744 54.1621 27.744C54.1621 18.4432 60.1023 12 70.0074 12C74.3667 12 78.1916 13.1712 80.652 14.8432L77.6079 20.0736C75.4816 19.1152 72.6109 18.4432 70.5847 18.4432C64.891 18.4432 62.2303 22.2448 62.2303 27.744C62.2303 33.624 65.3109 37.2512 70.9966 37.2512C72.0399 37.2512 73.3329 37.2112 74.3667 37.0512V31.6912H70.626V25.4832Z" fill="#4A4B54"/>
<path d="M104.629 42.9872L101.044 34.6192C100.311 32.9168 99.8001 32.0688 98.2447 32.0688H95.102V42.9872H87.5078V13.8016C87.5078 13.1712 88.1965 12.5856 88.6895 12.5856H99.4136C105.238 12.5856 110.232 13.8016 110.232 21.3728C110.232 24.76 108.366 28.2304 104.872 28.9328C106.613 29.528 108.366 31.7776 109.319 34.2128L112.773 42.9872H104.629ZM98.9031 18.4432H95.102V26.0672H98.9031C101.174 26.0672 102.96 24.848 102.96 21.96C102.96 19.0272 101.174 18.4432 98.9031 18.4432Z" fill="#4A4B54"/>
<path d="M129.563 43.5744C119.668 43.5744 114.434 36.5424 114.434 27.744C114.434 19.0272 119.668 12 129.563 12C138.829 12 144.069 19.0272 144.069 27.744C144.069 36.544 138.829 43.5744 129.563 43.5744ZM129.563 18.4432C125.487 18.4432 122.586 21.3728 122.586 27.744C122.586 34.2112 125.485 37.1296 129.563 37.1296C133.057 37.1296 135.918 34.2112 135.918 27.744C135.918 21.3728 133.057 18.4432 129.563 18.4432Z" fill="#4A4B54"/>
<path d="M158.946 43.5744C153.84 43.5744 149.094 41.7312 146.979 40.2688L150.422 34.1248C152.343 35.2928 156.08 37.0928 159.528 37.0928C161.48 37.0928 163.943 36.712 163.943 34.5328C163.943 32.4864 161.19 31.8576 157.577 30.8208C153.216 29.5616 148.14 27.816 148.14 21.9152C148.14 15.5552 153.755 12 161.065 12C165.89 12 169.629 13.7184 171.538 15.5552L167.344 20.36C165.267 19.1152 163.148 18.1424 160.771 18.1424C157.906 18.1424 156.287 19.2368 156.287 20.8272C156.287 22.4048 158.366 23.2096 160.981 24C165.602 25.4336 171.911 26.9008 171.911 32.992C171.911 39.2656 166.929 43.5744 158.946 43.5744Z" fill="#4A4B54"/>
</svg>
