<svg width="40" height="40" viewBox="0 0 40 40" fill="none" xmlns="http://www.w3.org/2000/svg">
<path d="M6.95064 25.5001L14.5006 33.0501C17.6006 36.1501 22.634 36.1501 25.7506 33.0501L33.0673 25.7334C36.1673 22.6334 36.1673 17.6001 33.0673 14.4834L25.5006 6.95008C23.9173 5.36675 21.734 4.51675 19.5006 4.63341L11.1673 5.03341C7.83397 5.18341 5.18397 7.83341 5.0173 11.1501L4.6173 19.4834C4.5173 21.7334 5.3673 23.9167 6.95064 25.5001Z" stroke="#2FBA56" stroke-width="2" stroke-linecap="round" stroke-linejoin="round"/>
<path d="M15.8327 20.0001C18.1339 20.0001 19.9993 18.1346 19.9993 15.8334C19.9993 13.5322 18.1339 11.6667 15.8327 11.6667C13.5315 11.6667 11.666 13.5322 11.666 15.8334C11.666 18.1346 13.5315 20.0001 15.8327 20.0001Z" stroke="#2FBA56" stroke-width="2" stroke-linecap="round"/>
</svg>
