<svg width="32" height="32" viewBox="0 0 32 32" fill="none" xmlns="http://www.w3.org/2000/svg">
<path d="M8.97268 26.2665C10.066 25.0932 11.7327 25.1865 12.6927 26.4665L14.0393 28.2665C15.1193 29.6932 16.866 29.6932 17.946 28.2665L19.2927 26.4665C20.2527 25.1865 21.9193 25.0932 23.0127 26.2665C25.386 28.7998 27.3193 27.9598 27.3193 24.4132V9.3865C27.3327 4.01317 26.0793 2.6665 21.0393 2.6665H10.9593C5.91935 2.6665 4.66602 4.01317 4.66602 9.3865V24.3998C4.66602 27.9598 6.61268 28.7865 8.97268 26.2665Z" stroke="#2FBA56" stroke-width="1.5" stroke-linecap="round" stroke-linejoin="round"/>
<path d="M12 17.3335L20 9.3335" stroke="#2FBA56" stroke-width="1.5" stroke-linecap="round" stroke-linejoin="round"/>
<path d="M19.9933 17.3332H20.0053" stroke="#2FBA56" stroke-width="2" stroke-linecap="round" stroke-linejoin="round"/>
<path d="M11.9933 10.0002H12.0053" stroke="#2FBA56" stroke-width="2" stroke-linecap="round" stroke-linejoin="round"/>
</svg>
