<svg width="32" height="32" viewBox="0 0 32 32" fill="none" xmlns="http://www.w3.org/2000/svg">
<path d="M21.3327 17.1998V22.7998C21.3327 27.4665 19.466 29.3332 14.7993 29.3332H9.19935C4.53268 29.3332 2.66602 27.4665 2.66602 22.7998V17.1998C2.66602 12.5332 4.53268 10.6665 9.19935 10.6665H14.7993C19.466 10.6665 21.3327 12.5332 21.3327 17.1998Z" stroke="#2FBA56" stroke-width="1.5" stroke-linecap="round" stroke-linejoin="round"/>
<path d="M29.3327 9.19984V14.7998C29.3327 19.4665 27.466 21.3332 22.7994 21.3332H21.3327V17.1998C21.3327 12.5332 19.466 10.6665 14.7994 10.6665H10.666V9.19984C10.666 4.53317 12.5327 2.6665 17.1994 2.6665H22.7994C27.466 2.6665 29.3327 4.53317 29.3327 9.19984Z" stroke="#2FBA56" stroke-width="1.5" stroke-linecap="round" stroke-linejoin="round"/>
</svg>
