<svg width="24" height="24" viewBox="0 0 24 24" fill="none" xmlns="http://www.w3.org/2000/svg">
<circle cx="12" cy="12" r="11.5" stroke="#0F0F11"/>
<path d="M16.7695 9.55078C17.2383 9.19922 17.6602 8.77734 17.9883 8.28516C17.5664 8.47266 17.0742 8.61328 16.582 8.66016C17.0977 8.35547 17.4727 7.88672 17.6602 7.30078C17.1914 7.58203 16.6523 7.79297 16.1133 7.91016C15.6445 7.41797 15.0117 7.13672 14.3086 7.13672C12.9492 7.13672 11.8477 8.23828 11.8477 9.59766C11.8477 9.78516 11.8711 9.97266 11.918 10.1602C9.87891 10.043 8.05078 9.05859 6.83203 7.58203C6.62109 7.93359 6.50391 8.35547 6.50391 8.82422C6.50391 9.66797 6.92578 10.418 7.60547 10.8633C7.20703 10.8398 6.80859 10.7461 6.48047 10.5586V10.582C6.48047 11.7773 7.32422 12.7617 8.44922 12.9961C8.26172 13.043 8.02734 13.0898 7.81641 13.0898C7.65234 13.0898 7.51172 13.0664 7.34766 13.043C7.65234 14.0273 8.56641 14.7305 9.64453 14.7539C8.80078 15.4102 7.74609 15.8086 6.59766 15.8086C6.38672 15.8086 6.19922 15.7852 6.01172 15.7617C7.08984 16.4648 8.37891 16.8633 9.78516 16.8633C14.3086 16.8633 16.7695 13.1367 16.7695 9.87891C16.7695 9.76172 16.7695 9.66797 16.7695 9.55078Z" fill="#0F0F11"/>
</svg>
