<svg width="42" height="36" viewBox="0 0 42 36" fill="none" xmlns="http://www.w3.org/2000/svg">
<path d="M40.2358 0L38.093 1.86631L12.2755 4.10526C11.0882 4.19053 10.4184 4.14316 9.33913 5.07474C8.25983 6.00632 8.2154 6.67579 7.96463 7.83474L2.15542 32.9495L0 34.8158L4.02834 6.2179C4.32673 4.39263 4.75528 3.07895 6.37106 1.68C7.98684 0.281055 9.35502 0.0410526 11.2152 0H40.2358Z" fill="#2FBA56"/>
<path d="M1.66797 35.9994L3.82339 34.1331L29.6283 31.8941C30.8155 31.8089 31.4853 31.8562 32.5646 30.9246C33.6439 29.9931 33.6883 29.3236 33.9391 28.1646L39.7483 3.0499L41.9037 1.18359L37.8754 29.7815C37.577 31.6068 37.1484 32.9204 35.5327 34.3194C33.9169 35.7183 32.5487 35.9583 30.6885 35.9994H1.66797Z" fill="#2FBA56"/>
</svg>
