<svg width="137" height="36" fill="none" xmlns="http://www.w3.org/2000/svg"><path d="m40.236 0-2.143 1.866-25.818 2.24c-1.187.085-1.857.037-2.936.969-1.08.931-1.124 1.6-1.374 2.76l-5.81 25.114L0 34.816 4.028 6.218c.299-1.825.727-3.139 2.343-4.538C7.987.281 9.355.041 11.215 0h29.02zM1.668 36l2.155-1.867 25.805-2.239c1.188-.085 1.857-.038 2.937-.97 1.079-.93 1.123-1.6 1.374-2.76L39.75 3.05l2.155-1.866-4.029 28.598c-.298 1.825-.727 3.138-2.342 4.537-1.616 1.4-2.984 1.64-4.845 1.68H1.669z" fill="#2FBA56"/><path d="M59.678 10.828c-4.762 0-10.158 1.263-10.158 7.58v7.578h2.856v-7.579c0-3.158 2.54-4.737 5.08-4.737l2.222-2.842zM136.182 10.828c-4.762 0-10.159 1.263-10.159 7.58v7.578h2.857v-7.579c0-3.158 2.54-4.737 5.079-4.737l2.223-2.842zM80.31 25.986h4.445l6.031-15.158h-3.174l-5.08 12.632-5.078-12.632h-3.175l6.032 15.158zM98.086 25.986h4.444l6.032-15.158h-3.175l-5.079 12.632-5.079-12.632h-3.174l6.031 15.158zM66.663 10.516c-1.324 0-4.175.094-6.032 1.932-1.616 1.608-1.904 4.317-1.904 5.962 0 .345 0 4.052 1.904 5.947 1.79 1.78 4.714 1.948 6.032 1.948 4.244 0 6.533-2.245 7.221-4.604l-2.79.028c-.854 1.194-2.857 2.053-4.444 2.053-1.298 0-4.816-.047-5.08-4.478l12.699.092v-1.109c-.09-1.876-.267-4.073-1.803-5.719-1.769-1.894-4.156-2.052-5.81-2.052h.007zm-5.08 6.577c.318-2.302 1.492-4.184 5.13-4.184 3.73 0 4.511 2.21 4.724 4.184h-9.853zM116.499 10.516c-1.324 0-4.175.094-6.032 1.932-1.616 1.608-1.905 4.317-1.905 5.962 0 .345 0 4.052 1.905 5.947 1.791 1.78 4.714 1.948 6.032 1.948 4.244 0 6.533-2.245 7.221-4.604l-2.79.028c-.854 1.194-2.857 2.053-4.444 2.053-1.298 0-4.816-.047-5.079-4.478l12.697.092v-1.109c-.088-1.876-.266-4.073-1.803-5.719-1.768-1.894-4.155-2.052-5.809-2.052h.007zm-5.08 6.577c.318-2.302 1.492-4.184 5.13-4.184 3.73 0 4.511 2.21 4.724 4.184h-9.854z" fill="#fff"/></svg>