<svg width="64" height="64" viewBox="0 0 64 64" fill="none" xmlns="http://www.w3.org/2000/svg">
<rect width="64" height="64" rx="16" fill="#DEE0E3"/>
<path d="M21.5605 36.4001L27.6005 42.4401C30.0805 44.9201 34.1072 44.9201 36.6005 42.4401L42.4538 36.5867C44.9338 34.1067 44.9338 30.0801 42.4538 27.5867L36.4005 21.5601C35.1338 20.2934 33.3872 19.6134 31.6005 19.7067L24.9338 20.0267C22.2672 20.1467 20.1472 22.2667 20.0138 24.9201L19.6938 31.5867C19.6138 33.3867 20.2938 35.1334 21.5605 36.4001Z" stroke="#0F0F11" stroke-width="2" stroke-linecap="round" stroke-linejoin="round"/>
<path d="M28.6673 32C30.5083 32 32.0007 30.5077 32.0007 28.6667C32.0007 26.8258 30.5083 25.3334 28.6673 25.3334C26.8264 25.3334 25.334 26.8258 25.334 28.6667C25.334 30.5077 26.8264 32 28.6673 32Z" stroke="#0F0F11" stroke-width="2" stroke-linecap="round"/>
</svg>
