<svg width="64" height="64" viewBox="0 0 64 64" fill="none" xmlns="http://www.w3.org/2000/svg">
<rect width="64" height="64" rx="16" fill="#0F0F11"/>
<path d="M32.0001 26.5199L30.5734 28.9999C30.2534 29.5466 30.5201 29.9999 31.1467 29.9999H32.8401C33.4801 29.9999 33.7334 30.4532 33.4134 30.9999L32.0001 33.4799" stroke="white" stroke-width="1.5" stroke-linecap="round" stroke-linejoin="round"/>
<path d="M27.0652 40.0532V38.5066C23.9985 36.6532 21.4785 33.0399 21.4785 29.1999C21.4785 22.5999 27.5452 17.4266 34.3985 18.9199C37.4119 19.5866 40.0518 21.5866 41.4252 24.3466C44.2118 29.9466 41.2785 35.8932 36.9718 38.4932V40.0399C36.9718 40.4266 37.1185 41.3199 35.6918 41.3199H28.3452C26.8785 41.3332 27.0652 40.7599 27.0652 40.0532Z" stroke="white" stroke-width="1.5" stroke-linecap="round" stroke-linejoin="round"/>
<path d="M27.334 45.3333C30.3873 44.4667 33.614 44.4667 36.6673 45.3333" stroke="white" stroke-width="1.5" stroke-linecap="round" stroke-linejoin="round"/>
</svg>
