<svg width="128" height="30" viewBox="0 0 128 30" fill="none" xmlns="http://www.w3.org/2000/svg">
<path d="M7.58093 4.48964C7.58093 12.4106 0.896484 13.893 0.896484 21.5064C0.896484 24.4787 2.78347 27.0527 5.01077 27.3602C4.84823 26.8182 4.7949 26.3997 4.7949 25.8148C4.7949 20.3191 13.6939 18.6148 13.6939 9.24174C13.6939 4.75939 10.5092 0.970312 6.79363 0.0703125C6.79363 0.0703125 7.57839 2.50309 7.57839 4.48712L7.58093 4.48964Z" fill="white"/>
<path d="M7.01758 26.1466C7.01758 27.7021 8.12742 29.3584 9.57504 29.8979C9.49885 29.6685 9.46329 29.4668 9.46329 29.129C9.46329 26.066 18.5909 25.0903 18.5909 17.0861C18.5909 14.8727 17.6588 12.4702 15.8125 10.8945C14.563 19.9929 7.01758 21.2458 7.01758 26.1466V26.1466Z" fill="white"/>
<path d="M2.23492 2.61133C2.23492 2.61133 2.67429 3.39536 2.67429 4.27015C2.67429 7.08108 0 8.1525 0 11.0088C0 12.3575 0.739048 13.4643 1.78286 14.1071C1.81079 13.8626 1.83619 13.6332 1.89968 13.4416C2.52444 11.4575 5.45524 9.26175 5.45524 6.1483C5.45524 4.28276 3.89587 2.74746 2.23492 2.61133V2.61133Z" fill="white"/>
<path d="M31.2676 18.9377C32.9971 20.4856 34.6378 21.3957 37.0047 21.3957C38.3178 21.3957 40.7101 20.8461 40.7101 19.1318C40.7101 18.1411 39.9584 17.6394 38.4879 17.3923L34.3609 16.7268C30.6885 16.1495 28.6797 14.2134 28.6797 11.3117C28.6797 6.56209 32.5527 4.5957 36.7863 4.5957C40.0727 4.5957 43.3057 5.92175 45.5305 8.38226L41.7692 11.0621C40.4587 9.48646 38.5362 8.57133 36.4485 8.57133C35.3133 8.57133 33.6371 9.28982 33.6371 10.5629C33.6371 11.6117 34.5032 12.1386 36.3927 12.4436L38.2924 12.7461C42.2441 13.3814 45.5051 14.5965 45.5051 18.3528C45.5051 24.2697 40.126 25.3789 36.4257 25.3789C33.0581 25.3789 29.8962 24.2974 27.1914 21.3705L31.2676 18.9377ZM57.6981 25.3814C51.3717 25.3814 47.6689 20.5134 47.6689 14.9823C47.6689 9.46125 51.3717 4.5957 57.6981 4.5957C64.0168 4.5957 67.7171 9.46125 67.7171 14.9823C67.7171 20.5108 64.0143 25.3814 57.6981 25.3814ZM57.6981 8.73772C54.7978 8.73772 52.6289 10.5655 52.6289 14.9823C52.6289 17.8613 53.7997 21.2344 57.6981 21.2344C61.3705 21.2344 62.7647 18.0251 62.7647 14.9823C62.7647 11.889 61.3705 8.73772 57.6981 8.73772ZM83.9279 11.6999C83.2295 9.87217 81.5304 8.7352 79.7984 8.7352C77.0758 8.7352 74.907 10.568 74.907 14.9848C74.907 17.8612 76.0752 21.2344 79.9762 21.2344C81.312 21.2344 83.2625 20.2411 84.0397 18.4688L87.966 20.3495C86.267 23.4176 83.3158 25.3789 79.9762 25.3789C73.6498 25.3789 69.9444 20.5134 69.9444 14.9848C69.9444 9.46377 73.4009 4.59822 79.5825 4.59822C83.4784 4.59822 86.0384 6.47638 87.8797 9.73352L83.9279 11.6999ZM95.6816 5.15285H100.804L108.296 24.8243H102.973L101.972 21.731H94.653L93.6473 24.8243H88.3622L95.6816 5.15285ZM100.774 18.0806L98.3279 9.95789H98.2746L95.8212 18.0806H100.774ZM110.262 5.15033H120.174C124.631 5.15033 127.364 7.19738 127.364 11.6142C127.364 14.1604 125.746 16.1999 123.265 16.9209L127.811 24.8243H122.264L118.366 17.7503H115.222V24.8243H110.262V5.15033ZM115.222 14.0949H119.76C121.348 14.0722 122.407 13.2755 122.407 11.4478C122.407 9.62007 121.348 8.82091 119.76 8.79318H115.222V14.0949Z" fill="white"/>
</svg>
